<svg width="508" height="121" viewBox="0 0 508 121" fill="none" xmlns="http://www.w3.org/2000/svg">
<path d="M498.569 103.288C492.425 103.288 487.732 101.411 484.489 97.656C481.246 93.9013 479.625 88.5253 479.625 81.528V16.248C479.625 14.5413 480.052 13.2613 480.905 12.408C481.758 11.4693 483.038 11 484.745 11C486.366 11 487.646 11.4693 488.585 12.408C489.524 13.2613 489.993 14.5413 489.993 16.248V80.76C489.993 85.368 490.889 88.824 492.681 91.128C494.558 93.3467 497.289 94.456 500.873 94.456C501.641 94.456 502.324 94.4133 502.921 94.328C503.518 94.2427 504.116 94.2 504.713 94.2C505.652 94.1147 506.292 94.328 506.633 94.84C507.06 95.352 507.273 96.376 507.273 97.912C507.273 99.448 506.932 100.6 506.249 101.368C505.566 102.136 504.457 102.648 502.921 102.904C502.238 102.989 501.513 103.075 500.745 103.16C499.977 103.245 499.252 103.288 498.569 103.288Z" fill="#DF6063"/>
<path d="M393.504 103.032C392.053 103.032 390.773 102.648 389.664 101.88C388.555 101.112 387.659 99.8746 386.976 98.168L367.904 46.328C367.392 44.8773 367.221 43.5973 367.392 42.488C367.648 41.3786 368.203 40.5253 369.056 39.928C369.909 39.3306 370.976 39.032 372.256 39.032C373.536 39.032 374.56 39.3306 375.328 39.928C376.181 40.5253 376.864 41.6346 377.376 43.256L395.296 94.456H392.224L410.656 43.256C411.253 41.72 411.979 40.6533 412.832 40.056C413.771 39.3733 414.965 39.032 416.416 39.032C417.781 39.032 418.933 39.3733 419.872 40.056C420.811 40.7387 421.536 41.8053 422.048 43.256L440.096 94.456H437.152L455.328 43C455.925 41.464 456.651 40.44 457.504 39.928C458.357 39.3306 459.381 39.032 460.576 39.032C461.941 39.032 462.965 39.3733 463.648 40.056C464.416 40.7387 464.843 41.6347 464.928 42.744C465.013 43.8533 464.8 45.048 464.288 46.328L445.216 98.168C444.619 99.7893 443.723 101.027 442.528 101.88C441.419 102.648 440.139 103.032 438.688 103.032C437.237 103.032 435.957 102.648 434.848 101.88C433.739 101.027 432.885 99.7893 432.288 98.168L413.344 46.2H418.848L400.032 98.168C399.435 99.7893 398.581 101.027 397.472 101.88C396.363 102.648 395.04 103.032 393.504 103.032Z" fill="#DF6063"/>
<path d="M327.606 103.288C321.547 103.288 316.299 101.965 311.862 99.32C307.425 96.6747 303.969 92.9627 301.494 88.184C299.105 83.32 297.91 77.6027 297.91 71.032C297.91 66.0827 298.593 61.6453 299.958 57.72C301.323 53.7093 303.329 50.296 305.974 47.48C308.619 44.664 311.734 42.5307 315.318 41.08C318.987 39.544 323.083 38.776 327.606 38.776C333.665 38.776 338.913 40.0987 343.35 42.744C347.787 45.3893 351.201 49.144 353.59 54.008C356.065 58.7867 357.302 64.4613 357.302 71.032C357.302 75.9813 356.619 80.4187 355.254 84.344C353.889 88.2693 351.883 91.6827 349.238 94.584C346.593 97.4 343.435 99.576 339.766 101.112C336.182 102.563 332.129 103.288 327.606 103.288ZM327.606 94.968C331.446 94.968 334.817 94.0293 337.718 92.152C340.619 90.2747 342.838 87.544 344.374 83.96C345.995 80.376 346.806 76.0667 346.806 71.032C346.806 63.2667 345.057 57.336 341.558 53.24C338.145 49.144 333.494 47.096 327.606 47.096C323.681 47.096 320.267 48.0347 317.366 49.912C314.55 51.704 312.331 54.392 310.71 57.976C309.174 61.4747 308.406 65.8267 308.406 71.032C308.406 78.712 310.155 84.6427 313.654 88.824C317.153 92.92 321.803 94.968 327.606 94.968Z" fill="#DF6063"/>
<path d="M283.444 103.288C277.3 103.288 272.607 101.411 269.364 97.656C266.121 93.9013 264.5 88.5253 264.5 81.528V16.248C264.5 14.5413 264.927 13.2613 265.78 12.408C266.633 11.4693 267.913 11 269.62 11C271.241 11 272.521 11.4693 273.46 12.408C274.399 13.2613 274.868 14.5413 274.868 16.248V80.76C274.868 85.368 275.764 88.824 277.556 91.128C279.433 93.3467 282.164 94.456 285.748 94.456C286.516 94.456 287.199 94.4133 287.796 94.328C288.393 94.2427 288.991 94.2 289.588 94.2C290.527 94.1147 291.167 94.328 291.508 94.84C291.935 95.352 292.148 96.376 292.148 97.912C292.148 99.448 291.807 100.6 291.124 101.368C290.441 102.136 289.332 102.648 287.796 102.904C287.113 102.989 286.388 103.075 285.62 103.16C284.852 103.245 284.127 103.288 283.444 103.288Z" fill="#DF6063"/>
<path d="M245.569 103.288C239.425 103.288 234.732 101.411 231.489 97.656C228.246 93.9013 226.625 88.5253 226.625 81.528V16.248C226.625 14.5413 227.052 13.2613 227.905 12.408C228.758 11.4693 230.038 11 231.745 11C233.366 11 234.646 11.4693 235.585 12.408C236.524 13.2613 236.993 14.5413 236.993 16.248V80.76C236.993 85.368 237.889 88.824 239.681 91.128C241.558 93.3467 244.289 94.456 247.873 94.456C248.641 94.456 249.324 94.4133 249.921 94.328C250.518 94.2427 251.116 94.2 251.713 94.2C252.652 94.1147 253.292 94.328 253.633 94.84C254.06 95.352 254.273 96.376 254.273 97.912C254.273 99.448 253.932 100.6 253.249 101.368C252.566 102.136 251.457 102.648 249.921 102.904C249.238 102.989 248.513 103.075 247.745 103.16C246.977 103.245 246.252 103.288 245.569 103.288Z" fill="#DF6063"/>
<path d="M178.334 103.288C174.067 103.288 170.227 102.477 166.814 100.856C163.486 99.1493 160.841 96.8453 158.878 93.944C156.915 91.0427 155.934 87.8 155.934 84.216C155.934 79.608 157.086 75.9813 159.39 73.336C161.779 70.6907 165.662 68.8133 171.038 67.704C176.499 66.5947 183.923 66.04 193.31 66.04H199.07V72.824H193.438C186.526 72.824 181.065 73.1653 177.054 73.848C173.129 74.4453 170.355 75.512 168.734 77.048C167.198 78.584 166.43 80.76 166.43 83.576C166.43 87.0747 167.625 89.9333 170.014 92.152C172.489 94.3707 175.817 95.48 179.998 95.48C183.411 95.48 186.398 94.6693 188.958 93.048C191.603 91.4267 193.651 89.208 195.102 86.392C196.638 83.576 197.406 80.3333 197.406 76.664V62.072C197.406 56.7813 196.339 52.984 194.206 50.68C192.073 48.2907 188.574 47.096 183.71 47.096C180.723 47.096 177.737 47.48 174.75 48.248C171.763 49.016 168.606 50.2533 165.278 51.96C164.083 52.5573 163.059 52.7707 162.206 52.6C161.353 52.344 160.67 51.8747 160.158 51.192C159.646 50.5093 159.347 49.7413 159.262 48.888C159.177 47.9493 159.347 47.0533 159.774 46.2C160.286 45.3467 161.054 44.664 162.078 44.152C165.833 42.2747 169.545 40.9093 173.214 40.056C176.883 39.2027 180.382 38.776 183.71 38.776C189.086 38.776 193.523 39.672 197.022 41.464C200.521 43.1707 203.123 45.816 204.83 49.4C206.537 52.8987 207.39 57.4213 207.39 62.968V97.656C207.39 99.3627 206.963 100.685 206.11 101.624C205.342 102.563 204.19 103.032 202.654 103.032C201.033 103.032 199.795 102.563 198.942 101.624C198.089 100.685 197.662 99.3627 197.662 97.656V87.672H198.814C198.131 90.9147 196.809 93.688 194.846 95.992C192.969 98.296 190.622 100.088 187.806 101.368C184.99 102.648 181.833 103.288 178.334 103.288Z" fill="#DF6063"/>
<path d="M91.12 103.032C89.4133 103.032 88.1333 102.563 87.28 101.624C86.4267 100.685 86 99.3627 86 97.656V16.248C86 14.5413 86.4267 13.2613 87.28 12.408C88.1333 11.4693 89.4133 11 91.12 11C92.7413 11 94.0213 11.4693 94.96 12.408C95.8987 13.2613 96.368 14.5413 96.368 16.248V53.752H94.704C96.496 48.8027 99.3973 45.0907 103.408 42.616C107.504 40.056 112.197 38.776 117.488 38.776C122.437 38.776 126.533 39.672 129.776 41.464C133.104 43.256 135.579 45.9867 137.2 49.656C138.821 53.24 139.632 57.8053 139.632 63.352V97.656C139.632 99.3627 139.163 100.685 138.224 101.624C137.371 102.563 136.133 103.032 134.512 103.032C132.805 103.032 131.483 102.563 130.544 101.624C129.691 100.685 129.264 99.3627 129.264 97.656V63.992C129.264 58.1893 128.112 53.9653 125.808 51.32C123.589 48.5893 120.005 47.224 115.056 47.224C109.339 47.224 104.773 49.016 101.36 52.6C98.032 56.0987 96.368 60.792 96.368 66.68V97.656C96.368 101.24 94.6187 103.032 91.12 103.032Z" fill="#DF6063"/>
<path fill-rule="evenodd" clip-rule="evenodd" d="M70.8559 23.4468C70.8369 23.4309 70.8184 23.4153 70.8005 23.4V23.321C70.4508 21.2226 69.1226 19.8581 67.8425 18.543C67.2925 17.978 66.7513 17.4221 66.3005 16.821C65.6142 16.1347 64.4963 14.899 63.1412 13.401L63.141 13.4008C58.5725 8.35073 51.3086 0.321008 48.8005 0.321005C41.7512 -1.67894 42.8005 6.321 42.8005 6.321C42.8005 6.50047 44.9991 8.80534 47.7918 11.7331C49.9141 13.9579 52.3794 16.5424 54.4837 18.8273C53.6514 18.8418 52.8205 18.8799 52.0062 18.9172H52.0062H52.0061C51.0215 18.9622 50.0612 19.0062 49.152 19.0062L32.896 19.0062C28.032 19.0062 23.5947 19.6462 19.584 20.9262C15.5733 22.2062 12.1173 24.0409 9.21599 26.4303C6.31466 28.7343 4.05333 31.5503 2.432 34.8783C0.810667 38.1209 0 41.7476 0 45.7583C0 52.2436 1.96266 57.4489 5.88799 61.3742C9.89865 65.2142 15.9147 67.9876 23.936 69.6942L37.248 72.3822L37.7512 70.8211L38.7512 67.3211L39.2512 65.8211L40.064 63.1662L26.752 60.3502C21.0347 59.2409 16.896 57.4916 14.336 55.1022C11.8613 52.7129 10.624 49.4703 10.624 45.3743C10.624 41.9609 11.52 38.9743 13.312 36.4143C15.1893 33.7689 17.7493 31.7636 20.992 30.3983C24.32 29.0329 28.2454 28.3502 32.768 28.3502H45.952H54.784H54.8969C53.6449 29.7061 51.9043 31.4541 50.1206 33.2455L50.1205 33.2455C46.4508 36.931 42.5979 40.8003 42.4388 41.8172C42.4388 41.8172 41.2717 49.293 48.3035 47.9496C50.8109 48.0056 58.2522 40.14 62.9323 35.1931L62.9324 35.193C64.3206 33.7256 65.4658 32.5151 66.1673 31.8443C66.6314 31.2534 67.1848 30.7097 67.7473 30.1571C69.0564 28.8709 70.4147 27.5364 70.8112 25.4463L70.8559 23.4468ZM47.064 51.3058L33.752 48.6178L33.2489 50.179L32.2489 53.679L31.7489 55.179L30.936 57.8338L44.248 60.6498C49.9654 61.7592 54.104 63.5085 56.664 65.8978C59.1387 68.2872 60.376 71.5298 60.376 75.6258C60.376 79.0392 59.48 82.0258 57.688 84.5858C55.8107 87.2312 53.2507 89.2365 50.008 90.6018C46.68 91.9672 42.7547 92.6498 38.232 92.6498H16.1031C17.3552 91.294 19.0957 89.546 20.8794 87.7546L20.8796 87.7545C24.5493 84.069 28.4021 80.1997 28.5612 79.1828C28.5612 79.1828 29.7283 71.707 22.6966 73.0504C20.1892 72.9945 12.7478 80.8601 8.06776 85.807C6.67949 87.2744 5.53419 88.485 4.83273 89.1558C4.36862 89.7467 3.81522 90.2904 3.25273 90.843C1.94361 92.1292 0.585267 93.4637 0.188797 95.5538L0.144165 97.5533C0.163159 97.5692 0.181599 97.5848 0.199498 97.6001V97.6791C0.54923 99.7775 1.87749 101.142 3.15758 102.457C3.70758 103.022 4.2487 103.578 4.6995 104.179C5.38582 104.865 6.50382 106.101 7.859 107.599C12.4275 112.649 19.6915 120.679 22.1995 120.679C29.2489 122.679 28.1995 114.679 28.1995 114.679C28.1995 114.5 26.0011 112.195 23.2085 109.267L23.2081 109.267L23.2076 109.266C21.0855 107.042 18.6205 104.457 16.5163 102.173C17.3486 102.158 18.1796 102.12 18.9938 102.083C19.9785 102.038 20.9388 101.994 21.848 101.994L38.104 101.994C42.968 101.994 47.4054 101.354 51.416 100.074C55.4267 98.7938 58.8827 96.9592 61.784 94.5698C64.6854 92.2658 66.9467 89.4498 68.568 86.1218C70.1894 82.8792 71 79.2525 71 75.2418C71 68.7565 69.0374 63.5512 65.112 59.6258C61.1014 55.7858 55.0854 53.0125 47.064 51.3058Z" fill="#DF6063"/>
</svg>
